<?xml version="1.0" encoding="UTF-8"?>
<svg width="128px" height="128px" viewBox="0 0 128 128" version="1.1" xmlns="http://www.w3.org/2000/svg" xmlns:xlink="http://www.w3.org/1999/xlink">
    <title>Parser-icon-bg-128grey</title>
    <defs>
        <linearGradient x1="0%" y1="0%" x2="0%" y2="100%" id="linearGradient-1">
            <stop stop-color="#0033FF" offset="0%"></stop>
            <stop stop-color="#00DDFF" offset="73.3692089%"></stop>
            <stop stop-color="#00FF99" offset="99.9098558%"></stop>
        </linearGradient>
    </defs>
    <g id="页面-2" stroke="none" stroke-width="1" fill="none" fill-rule="evenodd">
        <g id="Parser-icon-bg-128grey">
            <path d="M35.8943928,-9.66784287e-16 L92.1056072,1.45017643e-15 C104.58687,-8.42594268e-16 109.112877,1.29955856 113.67584,3.73985785 C118.238803,6.18015715 121.819843,9.76119719 124.260142,14.3241602 C126.700441,18.8871231 128,23.4131304 128,35.8943928 L128,92.1056072 C128,104.58687 126.700441,109.112877 124.260142,113.67584 C121.819843,118.238803 118.238803,121.819843 113.67584,124.260142 C109.112877,126.700441 104.58687,128 92.1056072,128 L35.8943928,128 C23.4131304,128 18.8871231,126.700441 14.3241602,124.260142 C9.76119719,121.819843 6.18015715,118.238803 3.73985785,113.67584 C1.29955856,109.112877 2.80864756e-16,104.58687 -4.83392144e-16,92.1056072 L9.66784287e-16,35.8943928 C-5.61729512e-16,23.4131304 1.29955856,18.8871231 3.73985785,14.3241602 C6.18015715,9.76119719 9.76119719,6.18015715 14.3241602,3.73985785 C18.8871231,1.29955856 23.4131304,5.61729512e-16 35.8943928,-9.66784287e-16 Z" id="rect" fill-opacity="0.0" fill="#fff" stroke="#888" stroke-opacity="0.1"></path>
            <!-- fill-opacity="0.118853802" fill="#808080" -->
            <path d="M45.8700739,22.5008771 C58.8960189,22.5178699 78.4530822,22.8434 91.3883675,29.9672199 C95.8412493,32.4195453 99.5043331,35.6817269 101.814674,40.0351301 C103.874685,43.9168349 104.855811,48.6622039 104.382952,54.4589826 C103.486921,65.4434445 97.848211,72.6510887 89.6723742,77.3827395 C79.0028938,83.5575515 64.0519436,85.5441593 49.6070994,86.1912747 L48.8337799,86.2246765 L43.4769541,107.5 L22.6434274,107.5 L44.0670092,23.4474637 L44.2284538,22.7877462 L45.8700739,22.5008771 Z M59.8420708,43.4996252 L57.7585368,51.8613499 L57.6258296,52.3939357 L57.2467337,53.9153393 L57.0156139,54.8428785 L56.636518,56.3642821 L56.5038108,56.8968678 L56.4378832,57.1615081 C55.9280783,59.2087744 55.3172264,61.691194 54.5517833,65.5007538 L54.5517833,65.5007538 L55.7095256,65.499307 L55.96451,65.4984081 C59.9794761,65.4806224 68.78418,65.2635287 75.5202241,62.7436599 C79.8337484,61.1300252 83.2778917,58.5710391 84.2605744,54.6207011 C84.7413447,52.6880271 84.4749047,51.0870699 83.6948265,49.7572015 C82.8309831,48.284531 81.316473,47.1398264 79.4227184,46.2693605 C73.8057976,43.6875381 64.8202627,43.5108335 60.9347052,43.5006737 L60.9347052,43.5006737 L59.8420708,43.4996252 Z" id="shape" stroke="#FFFFFF" fill="url(#linearGradient-1)"></path>
        </g>
    </g>
</svg>